Sprint_08100001_forces_filt20Hz.mot
version=1
nRows=52
nColumns=19
inDegrees=yes
endheader
time	R_ground_force_vx	R_ground_force_vy	R_ground_force_vz	R_ground_force_px	R_ground_force_py	R_ground_force_pz	R_ground_torque_x	R_ground_torque_y	R_ground_torque_z	L_ground_force_vx	L_ground_force_vy	L_ground_force_vz	L_ground_force_px	L_ground_force_py	L_ground_force_pz	L_ground_torque_x	L_ground_torque_y	L_ground_torque_z	
2.927000	  0.000000	  0.000000	  0.000000	  0.202139	  0.000000	 -0.207233	  0.000000	  0.000000	  0.000000	-126.054518	198.675693	 -3.112621	  0.980266	  0.000000	 -0.427260	  0.000000	  0.525380	  0.000000
2.927500	  0.000000	  0.000000	  0.000000	  0.204590	  0.000000	 -0.206977	  0.000000	  0.000000	  0.000000	-136.356440	221.893843	  0.883455	  0.951059	  0.000000	 -0.435550	  0.000000	  0.878844	  0.000000
2.928000	  0.000000	  0.000000	  0.000000	  0.207041	  0.000000	 -0.206721	  0.000000	  0.000000	  0.000000	-146.996069	246.353154	  5.116437	  0.921853	  0.000000	 -0.443840	  0.000000	  1.244473	  0.000000
2.928500	  0.000000	  0.000000	  0.000000	  0.209492	  0.000000	 -0.206465	  0.000000	  0.000000	  0.000000	-157.948252	272.067946	  9.598811	  0.923874	  0.000000	 -0.439932	  0.000000	  1.621043	  0.000000
2.929000	  0.000000	  0.000000	  0.000000	  0.211942	  0.000000	 -0.206209	  0.000000	  0.000000	  0.000000	-169.184988	299.048684	 14.343719	  0.925704	  0.000000	 -0.436329	  0.000000	  2.007218	  0.000000
2.929500	  0.000000	  0.000000	  0.000000	  0.214393	  0.000000	 -0.205953	  0.000000	  0.000000	  0.000000	-180.675380	327.301578	 19.364760	  0.927358	  0.000000	 -0.432977	  0.000000	  2.401631	  0.000000
2.930000	  0.000000	  0.000000	  0.000000	  0.216844	  0.000000	 -0.205697	  0.000000	  0.000000	  0.000000	-192.385600	356.828160	 24.675754	  0.928853	  0.000000	 -0.429836	  0.000000	  2.802956	  0.000000
2.930500	  0.000000	  0.000000	  0.000000	  0.219009	  0.000000	 -0.205589	  0.000000	  0.000000	  0.000000	-204.278876	387.624845	 30.290448	  0.930200	  0.000000	 -0.426870	  0.000000	  3.209946	  0.000000
2.931000	  0.000000	  0.000000	  0.000000	  0.221174	  0.000000	 -0.205481	  0.000000	  0.000000	  0.000000	-216.315509	419.682470	 36.222172	  0.931413	  0.000000	 -0.424053	  0.000000	  3.621446	  0.000000
2.931500	  0.000000	  0.000000	  0.000000	  0.223339	  0.000000	 -0.205373	  0.000000	  0.000000	  0.000000	-228.452961	452.985811	 42.483458	  0.932503	  0.000000	 -0.421359	  0.000000	  4.036365	  0.000000
2.932000	  0.000000	  0.000000	  0.000000	  0.225504	  0.000000	 -0.205264	  0.000000	  0.000000	  0.000000	-240.646024	487.513086	 49.085629	  0.933480	  0.000000	 -0.418771	  0.000000	  4.453615	  0.000000
2.932500	  0.000000	  0.000000	  0.000000	  0.227669	  0.000000	 -0.205156	  0.000000	  0.000000	  0.000000	-252.847078	523.235434	 56.038406	  0.934355	  0.000000	 -0.416271	  0.000000	  4.872016	  0.000000
2.933000	  0.000000	  0.000000	  0.000000	  0.229834	  0.000000	 -0.205048	  0.000000	  0.000000	  0.000000	-265.006422	560.116377	 63.349541	  0.935137	  0.000000	 -0.413848	  0.000000	  5.290197	  0.000000
2.933500	  0.000000	  0.000000	  0.000000	  0.231999	  0.000000	 -0.204939	  0.000000	  0.000000	  0.000000	-277.072669	598.111675	 71.024499	  0.935835	  0.000000	 -0.411491	  0.000000	  5.706502	  0.000000
2.934000	  0.000000	  0.000000	  0.000000	  0.234164	  0.000000	 -0.204831	  0.000000	  0.000000	  0.000000	-288.993184	637.170400	 79.066183	  0.936456	  0.000000	 -0.409190	  0.000000	  6.118948	  0.000000
2.934500	  0.000000	  0.000000	  0.000000	  0.236329	  0.000000	 -0.204723	  0.000000	  0.000000	  0.000000	-300.714554	677.237068	 87.474676	  0.937009	  0.000000	 -0.406940	  0.000000	  6.525216	  0.000000
2.935000	  0.000000	  0.000000	  0.000000	  0.238494	  0.000000	 -0.204615	  0.000000	  0.000000	  0.000000	-312.183070	718.253651	 96.247001	  0.937500	  0.000000	 -0.404734	  0.000000	  6.922665	  0.000000
2.935500	  0.000000	  0.000000	  0.000000	  0.240830	  0.000000	 -0.204442	  0.000000	  0.000000	  0.000000	-323.345216	760.161103	105.376852	  0.937937	  0.000000	 -0.402566	  0.000000	  7.308327	  0.000000
2.936000	  0.000000	  0.000000	  0.000000	  0.243167	  0.000000	 -0.204270	  0.000000	  0.000000	  0.000000	-334.148141	802.900797	114.854278	  0.938327	  0.000000	 -0.400434	  0.000000	  7.678843	  0.000000
2.936500	  0.000000	  0.000000	  0.000000	  0.245503	  0.000000	 -0.204097	  0.000000	  0.000000	  0.000000	-344.540124	846.415983	124.665323	  0.938676	  0.000000	 -0.398334	  0.000000	  8.030340	  0.000000
2.937000	  0.000000	  0.000000	  0.000000	  0.247839	  0.000000	 -0.203925	  0.000000	  0.000000	  0.000000	-354.471035	890.653050	134.791654	  0.938990	  0.000000	 -0.396263	  0.000000	  8.358257	  0.000000
2.937500	  0.000000	  0.000000	  0.000000	  0.250176	  0.000000	 -0.203753	  0.000000	  0.000000	  0.000000	-363.892814	935.562456	145.210224	  0.939273	  0.000000	 -0.394220	  0.000000	  8.657156	  0.000000
2.938000	  0.000000	  0.000000	  0.000000	  0.252512	  0.000000	 -0.203580	  0.000000	  0.000000	  0.000000	-372.760014	981.099232	155.893073	  0.939529	  0.000000	 -0.392203	  0.000000	  8.920545	  0.000000
2.938500	  0.000000	  0.000000	  0.000000	  0.254848	  0.000000	 -0.203408	  0.000000	  0.000000	  0.000000	-381.030432	1027.223088	166.807301	  0.939760	  0.000000	 -0.390211	  0.000000	  9.140747	  0.000000
2.939000	  0.000000	  0.000000	  0.000000	  0.257184	  0.000000	 -0.203235	  0.000000	  0.000000	  0.000000	-388.665845	1073.898218	177.915256	  0.939968	  0.000000	 -0.388245	  0.000000	  9.308821	  0.000000
2.939500	  0.000000	  0.000000	  0.000000	  0.259521	  0.000000	 -0.203063	  0.000000	  0.000000	  0.000000	-395.632855	1121.092958	189.174909	  0.940154	  0.000000	 -0.386307	  0.000000	  9.414536	  0.000000
2.940000	  0.000000	  0.000000	  0.000000	  0.261857	  0.000000	 -0.202890	  0.000000	  0.000000	  0.000000	-401.903805	1168.779431	200.540371	  0.940319	  0.000000	 -0.384396	  0.000000	  9.446396	  0.000000
2.940500	  0.000000	  0.000000	  0.000000	  0.264392	  0.000000	 -0.202637	  0.000000	  0.000000	  0.000000	-407.457715	1216.933262	211.962470	  0.940461	  0.000000	 -0.382516	  0.000000	  9.391702	  0.000000
2.941000	  0.000000	  0.000000	  0.000000	  0.266927	  0.000000	 -0.202384	  0.000000	  0.000000	  0.000000	-412.281181	1265.533382	223.389330	  0.940579	  0.000000	 -0.380668	  0.000000	  9.236675	  0.000000
2.941500	  0.000000	  0.000000	  0.000000	  0.269462	  0.000000	 -0.202131	  0.000000	  0.000000	  0.000000	-416.369191	1314.561868	234.766883	  0.940671	  0.000000	 -0.378853	  0.000000	  8.966645	  0.000000
2.942000	  0.000000	  0.000000	  0.000000	  0.271996	  0.000000	 -0.201878	  0.000000	  0.000000	  0.000000	-419.725790	1364.003788	246.039312	  0.940730	  0.000000	 -0.377074	  0.000000	  8.566324	  0.000000
2.942500	  0.000000	  0.000000	  0.000000	  0.274531	  0.000000	 -0.201625	  0.000000	  0.000000	  0.000000	-422.364544	1413.846951	257.149442	  0.940751	  0.000000	 -0.375331	  0.000000	  8.020182	  0.000000
2.943000	  0.000000	  0.000000	  0.000000	  0.277066	  0.000000	 -0.201371	  0.000000	  0.000000	  0.000000	-424.308728	1464.081495	268.039159	  0.940724	  0.000000	 -0.373628	  0.000000	  7.312903	  0.000000
2.943500	  0.000000	  0.000000	  0.000000	  0.279601	  0.000000	 -0.201118	  0.000000	  0.000000	  0.000000	-425.591218	1514.699252	278.649884	  0.940641	  0.000000	 -0.371963	  0.000000	  6.429903	  0.000000
2.944000	  0.000000	  0.000000	  0.000000	  0.282136	  0.000000	 -0.200865	  0.000000	  0.000000	  0.000000	-426.254083	1565.692790	288.923137	  0.940489	  0.000000	 -0.370338	  0.000000	  5.357857	  0.000000
2.944500	  0.000000	  0.000000	  0.000000	  0.284671	  0.000000	 -0.200612	  0.000000	  0.000000	  0.000000	-426.347907	1617.054162	298.801140	  0.940257	  0.000000	 -0.368752	  0.000000	  4.085179	  0.000000
2.945000	  0.000000	  0.000000	  0.000000	  0.287206	  0.000000	 -0.200359	  0.000000	  0.000000	  0.000000	-425.930872	1668.773409	308.227394	  0.939935	  0.000000	 -0.367205	  0.000000	  2.602430	  0.000000
2.945500	  0.000000	  0.000000	  0.000000	  0.289814	  0.000000	 -0.200077	  0.000000	  0.000000	  0.000000	-425.067609	1720.836979	317.147135	  0.939512	  0.000000	 -0.365696	  0.000000	  0.902600	  0.000000
2.946000	  0.000000	  0.000000	  0.000000	  0.292423	  0.000000	 -0.199796	  0.000000	  0.000000	  0.000000	-423.827804	1773.226278	325.507620	  0.938978	  0.000000	 -0.364223	  0.000000	 -1.018700	  0.000000
2.946500	  0.000000	  0.000000	  0.000000	  0.295031	  0.000000	 -0.199514	  0.000000	  0.000000	  0.000000	-422.284562	1825.916514	333.258197	  0.938325	  0.000000	 -0.362786	  0.000000	 -3.163132	  0.000000
2.947000	  0.000000	  0.000000	  0.000000	  0.297640	  0.000000	 -0.199232	  0.000000	  0.000000	  0.000000	-420.512529	1878.875923	340.350170	  0.937546	  0.000000	 -0.361382	  0.000000	 -5.529533	  0.000000
2.947500	  0.000000	  0.000000	  0.000000	  0.300248	  0.000000	 -0.198951	  0.000000	  0.000000	  0.000000	-418.585836	1932.065378	346.736491	  0.936637	  0.000000	 -0.360011	  0.000000	 -8.113815	  0.000000
2.948000	  0.000000	  0.000000	  0.000000	  0.302856	  0.000000	 -0.198669	  0.000000	  0.000000	  0.000000	-416.575943	1985.438262	352.371378	  0.935596	  0.000000	 -0.358672	  0.000000	-10.908798	  0.000000
2.948500	  0.000000	  0.000000	  0.000000	  0.305465	  0.000000	 -0.198387	  0.000000	  0.000000	  0.000000	-414.549535	2038.940521	357.209947	  0.934422	  0.000000	 -0.357364	  0.000000	-13.904016	  0.000000
2.949000	  0.000000	  0.000000	  0.000000	  0.308073	  0.000000	 -0.198106	  0.000000	  0.000000	  0.000000	-412.566603	2092.510805	361.207977	  0.933118	  0.000000	 -0.356087	  0.000000	-17.085538	  0.000000
2.949500	  0.000000	  0.000000	  0.000000	  0.310682	  0.000000	 -0.197824	  0.000000	  0.000000	  0.000000	-410.678870	2146.080673	364.321874	  0.931690	  0.000000	 -0.354841	  0.000000	-20.435867	  0.000000
2.950000	  0.000000	  0.000000	  0.000000	  0.313290	  0.000000	 -0.197542	  0.000000	  0.000000	  0.000000	-408.928675	2199.574910	366.508898	  0.930145	  0.000000	 -0.353626	  0.000000	-23.934002	  0.000000
2.950500	  0.000000	  0.000000	  0.000000	  0.315847	  0.000000	 -0.197284	  0.000000	  0.000000	  0.000000	-407.348355	2252.911941	367.727612	  0.928492	  0.000000	 -0.352443	  0.000000	-27.555677	  0.000000
2.951000	  0.000000	  0.000000	  0.000000	  0.318404	  0.000000	 -0.197027	  0.000000	  0.000000	  0.000000	-405.960071	2306.004242	367.938485	  0.926746	  0.000000	 -0.351293	  0.000000	-31.273766	  0.000000
2.951500	  0.000000	  0.000000	  0.000000	  0.320961	  0.000000	 -0.196769	  0.000000	  0.000000	  0.000000	-404.776034	2358.758753	367.104563	  0.924920	  0.000000	 -0.350177	  0.000000	-35.058799	  0.000000
2.952000	  0.000000	  0.000000	  0.000000	  0.323518	  0.000000	 -0.196511	  0.000000	  0.000000	  0.000000	-403.799029	2411.077311	365.192134	  0.923030	  0.000000	 -0.349096	  0.000000	-38.879521	  0.000000
2.952500	  0.000000	  0.000000	  0.000000	  0.326075	  0.000000	 -0.196253	  0.000000	  0.000000	  0.000000	-403.023204	2462.857243	362.171339	  0.921094	  0.000000	 -0.348050	  0.000000	-42.703441	  0.000000
